<?xml version="1.0" encoding="utf-8"?>
<svg width="90" height="380" viewBox="0 0 23.812501 100.54167" version="1.1" id="svg8" xmlns="http://www.w3.org/2000/svg">
  <g id="ok">
    <g id="layer1" transform="matrix(0.991942, 0, 0, 1, 0.006925, -196.444931)">
      <title>layer3</title>
      <path style="opacity:1;vector-effect:none;fill:#f0f0f0;fill-opacity:1;fill-rule:evenodd;stroke:none;stroke-width:0.48607069;stroke-linecap:butt;stroke-linejoin:round;stroke-miterlimit:4;stroke-dasharray:none;stroke-dashoffset:0;stroke-opacity:1;paint-order:normal" d="M 0,196.45831 H 23.8125 V 296.99999 H 0 Z" id="rect817"/>
      <path d="M 1.051 204.901 L 1.051 201.441 L 2.321 201.441 L 2.321 201.441 C 2.694 201.441 2.971 201.531 3.151 201.711 L 3.151 201.711 L 3.151 201.711 C 3.331 201.891 3.421 202.171 3.421 202.551 L 3.421 202.551 L 3.421 202.551 C 3.421 203.338 3.054 203.731 2.321 203.731 L 2.321 203.731 L 1.441 203.731 L 1.441 204.901 L 1.051 204.901 Z M 1.441 203.391 L 2.321 203.391 L 2.321 203.391 C 2.794 203.391 3.031 203.111 3.031 202.551 L 3.031 202.551 L 3.031 202.551 C 3.031 202.284 2.974 202.088 2.861 201.961 L 2.861 201.961 L 2.861 201.961 C 2.748 201.841 2.568 201.781 2.321 201.781 L 2.321 201.781 L 1.441 201.781 L 1.441 203.391 ZM 4.736 204.951 L 4.736 204.951 C 4.523 204.951 4.359 204.911 4.246 204.831 L 4.246 204.831 L 4.246 204.831 C 4.133 204.758 4.053 204.631 4.006 204.451 L 4.006 204.451 L 4.006 204.451 C 3.959 204.278 3.936 204.028 3.936 203.701 L 3.936 203.701 L 3.936 202.401 L 4.306 202.401 L 4.306 203.701 L 4.306 203.701 C 4.306 203.948 4.319 204.134 4.346 204.261 L 4.346 204.261 L 4.346 204.261 C 4.373 204.388 4.423 204.481 4.496 204.541 L 4.496 204.541 L 4.496 204.541 C 4.563 204.588 4.669 204.611 4.816 204.611 L 4.816 204.611 L 4.816 204.611 C 5.043 204.611 5.276 204.551 5.516 204.431 L 5.516 204.431 L 5.516 202.401 L 5.886 202.401 L 5.886 204.901 L 5.516 204.901 L 5.516 204.721 L 5.516 204.721 C 5.383 204.801 5.256 204.861 5.136 204.901 L 5.136 204.901 L 5.136 204.901 C 5.016 204.934 4.883 204.951 4.736 204.951 L 4.736 204.951 ZM 6.611 204.901 L 6.611 202.401 L 6.981 202.401 L 6.981 202.741 L 6.981 202.741 C 7.268 202.541 7.574 202.408 7.901 202.341 L 7.901 202.341 L 7.901 202.721 L 7.901 202.721 C 7.768 202.748 7.624 202.791 7.471 202.851 L 7.471 202.851 L 7.471 202.851 C 7.318 202.904 7.198 202.954 7.111 203.001 L 7.111 203.001 L 6.981 203.071 L 6.981 204.901 L 6.611 204.901 ZM 9.221 204.951 L 9.221 204.951 C 8.841 204.951 8.574 204.851 8.421 204.651 L 8.421 204.651 L 8.421 204.651 C 8.261 204.451 8.181 204.138 8.181 203.711 L 8.181 203.711 L 8.181 203.711 C 8.181 203.251 8.268 202.911 8.441 202.691 L 8.441 202.691 L 8.441 202.691 C 8.608 202.464 8.871 202.351 9.231 202.351 L 9.231 202.351 L 9.231 202.351 C 9.564 202.351 9.814 202.448 9.981 202.641 L 9.981 202.641 L 9.981 202.641 C 10.148 202.828 10.231 203.121 10.231 203.521 L 10.231 203.521 L 10.211 203.811 L 8.561 203.811 L 8.561 203.811 C 8.561 204.011 8.584 204.171 8.631 204.291 L 8.631 204.291 L 8.631 204.291 C 8.678 204.411 8.754 204.494 8.861 204.541 L 8.861 204.541 L 8.861 204.541 C 8.968 204.594 9.118 204.621 9.311 204.621 L 9.311 204.621 L 9.311 204.621 C 9.411 204.621 9.524 204.618 9.651 204.611 L 9.651 204.611 L 9.651 204.611 C 9.778 204.611 9.891 204.604 9.991 204.591 L 9.991 204.591 L 10.141 204.571 L 10.141 204.871 L 10.141 204.871 C 9.774 204.924 9.468 204.951 9.221 204.951 L 9.221 204.951 Z M 8.561 203.501 L 9.861 203.501 L 9.861 203.501 C 9.861 203.201 9.811 202.988 9.711 202.861 L 9.711 202.861 L 9.711 202.861 C 9.618 202.734 9.458 202.671 9.231 202.671 L 9.231 202.671 L 9.231 202.671 C 9.004 202.671 8.838 202.738 8.731 202.871 L 8.731 202.871 L 8.731 202.871 C 8.618 203.004 8.561 203.214 8.561 203.501 L 8.561 203.501 ZM 12.696 204.951 L 12.696 204.951 C 12.376 204.951 12.149 204.848 12.016 204.641 L 12.016 204.641 L 12.016 204.641 C 11.876 204.434 11.806 204.118 11.806 203.691 L 11.806 203.691 L 11.806 203.691 C 11.806 203.218 11.889 202.878 12.056 202.671 L 12.056 202.671 L 12.056 202.671 C 12.216 202.458 12.486 202.351 12.866 202.351 L 12.866 202.351 L 12.866 202.351 C 13.059 202.351 13.259 202.374 13.466 202.421 L 13.466 202.421 L 13.466 201.311 L 13.836 201.311 L 13.836 204.901 L 13.466 204.901 L 13.466 204.731 L 13.466 204.731 C 13.213 204.878 12.956 204.951 12.696 204.951 L 12.696 204.951 Z M 12.766 204.611 L 12.766 204.611 C 12.859 204.611 12.963 204.598 13.076 204.571 L 13.076 204.571 L 13.076 204.571 C 13.189 204.544 13.286 204.514 13.366 204.481 L 13.366 204.481 L 13.466 204.431 L 13.466 202.731 L 13.466 202.731 C 13.246 202.691 13.056 202.671 12.896 202.671 L 12.896 202.671 L 12.896 202.671 C 12.636 202.671 12.453 202.748 12.346 202.901 L 12.346 202.901 L 12.346 202.901 C 12.246 203.054 12.196 203.308 12.196 203.661 L 12.196 203.661 L 12.196 203.661 C 12.196 203.988 12.236 204.228 12.316 204.381 L 12.316 204.381 L 12.316 204.381 C 12.403 204.534 12.553 204.611 12.766 204.611 L 12.766 204.611 ZM 15.461 204.951 L 15.461 204.951 C 15.081 204.951 14.814 204.851 14.661 204.651 L 14.661 204.651 L 14.661 204.651 C 14.501 204.451 14.421 204.138 14.421 203.711 L 14.421 203.711 L 14.421 203.711 C 14.421 203.251 14.508 202.911 14.681 202.691 L 14.681 202.691 L 14.681 202.691 C 14.848 202.464 15.111 202.351 15.471 202.351 L 15.471 202.351 L 15.471 202.351 C 15.804 202.351 16.054 202.448 16.221 202.641 L 16.221 202.641 L 16.221 202.641 C 16.388 202.828 16.471 203.121 16.471 203.521 L 16.471 203.521 L 16.451 203.811 L 14.801 203.811 L 14.801 203.811 C 14.801 204.011 14.824 204.171 14.871 204.291 L 14.871 204.291 L 14.871 204.291 C 14.918 204.411 14.994 204.494 15.101 204.541 L 15.101 204.541 L 15.101 204.541 C 15.208 204.594 15.358 204.621 15.551 204.621 L 15.551 204.621 L 15.551 204.621 C 15.651 204.621 15.764 204.618 15.891 204.611 L 15.891 204.611 L 15.891 204.611 C 16.018 204.611 16.131 204.604 16.231 204.591 L 16.231 204.591 L 16.381 204.571 L 16.381 204.871 L 16.381 204.871 C 16.014 204.924 15.708 204.951 15.461 204.951 L 15.461 204.951 Z M 14.801 203.501 L 16.101 203.501 L 16.101 203.501 C 16.101 203.201 16.051 202.988 15.951 202.861 L 15.951 202.861 L 15.951 202.861 C 15.858 202.734 15.698 202.671 15.471 202.671 L 15.471 202.671 L 15.471 202.671 C 15.244 202.671 15.078 202.738 14.971 202.871 L 14.971 202.871 L 14.971 202.871 C 14.858 203.004 14.801 203.214 14.801 203.501 L 14.801 203.501 ZM 17.086 204.901 L 17.086 201.311 L 17.466 201.311 L 17.466 204.901 L 17.086 204.901 ZM 18.761 204.951 L 18.761 204.951 C 18.528 204.951 18.351 204.888 18.231 204.761 L 18.231 204.761 L 18.231 204.761 C 18.111 204.628 18.051 204.441 18.051 204.201 L 18.051 204.201 L 18.051 204.201 C 18.051 203.961 18.111 203.781 18.231 203.661 L 18.231 203.661 L 18.231 203.661 C 18.358 203.541 18.551 203.468 18.811 203.441 L 18.811 203.441 L 19.601 203.371 L 19.601 203.151 L 19.601 203.151 C 19.601 202.838 19.464 202.681 19.191 202.681 L 19.191 202.681 L 19.191 202.681 C 18.924 202.681 18.594 202.701 18.201 202.741 L 18.201 202.741 L 18.191 202.461 L 18.191 202.461 C 18.551 202.388 18.874 202.351 19.161 202.351 L 19.161 202.351 L 19.161 202.351 C 19.448 202.351 19.654 202.414 19.781 202.541 L 19.781 202.541 L 19.781 202.541 C 19.914 202.668 19.981 202.871 19.981 203.151 L 19.981 203.151 L 19.981 204.431 L 19.981 204.431 C 19.988 204.558 20.084 204.634 20.271 204.661 L 20.271 204.661 L 20.251 204.951 L 20.251 204.951 C 19.984 204.951 19.784 204.884 19.651 204.751 L 19.651 204.751 L 19.651 204.751 C 19.358 204.884 19.061 204.951 18.761 204.951 L 18.761 204.951 Z M 18.811 204.631 L 18.811 204.631 C 19.038 204.631 19.264 204.594 19.491 204.521 L 19.491 204.521 L 19.601 204.481 L 19.601 203.651 L 18.861 203.721 L 18.861 203.721 C 18.714 203.734 18.608 203.781 18.541 203.861 L 18.541 203.861 L 18.541 203.861 C 18.468 203.928 18.431 204.034 18.431 204.181 L 18.431 204.181 L 18.431 204.181 C 18.431 204.481 18.558 204.631 18.811 204.631 L 18.811 204.631 ZM 21.211 206.011 L 21.541 204.901 L 21.161 204.901 L 20.461 202.401 L 20.831 202.401 L 21.461 204.571 L 21.621 204.571 L 22.251 202.401 L 22.621 202.401 L 21.591 206.011 L 21.211 206.011 Z" transform="matrix(1, 0, 0, 1, 0, 0)" style="fill: rgb(51, 51, 51); white-space: pre;" id="path3"/>
      <line style="stroke: rgb(0, 0, 0);" x1="11.992790222167969" y1="212.38380432128906" x2="11.992790222167969" y2="212.38380432128906" id="line5"/>
      <path d="M 4.304 212.384 L 4.304 210.304 L 4.534 210.304 L 4.534 212.384 L 4.304 212.384 ZM 6.322 210.304 L 6.552 210.304 L 6.552 212.384 L 6.132 212.384 L 5.322 210.514 L 5.272 210.514 L 5.272 212.384 L 5.042 212.384 L 5.042 210.304 L 5.472 210.304 L 6.272 212.184 L 6.322 212.184 L 6.322 210.304 Z" transform="matrix(1, 0, 0, 1, 0, 0)" style="fill: rgb(51, 51, 51); white-space: pre;" id="path7"/>
      <path d="M 16.379 212.414 L 16.379 212.414 C 16.172 212.414 16.009 212.377 15.889 212.304 L 15.889 212.304 L 15.889 212.304 C 15.769 212.231 15.686 212.117 15.639 211.964 L 15.639 211.964 L 15.639 211.964 C 15.586 211.811 15.559 211.607 15.559 211.354 L 15.559 211.354 L 15.559 211.354 C 15.559 211.107 15.586 210.904 15.639 210.744 L 15.639 210.744 L 15.639 210.744 C 15.692 210.584 15.779 210.467 15.899 210.394 L 15.899 210.394 L 15.899 210.394 C 16.019 210.314 16.179 210.274 16.379 210.274 L 16.379 210.274 L 16.379 210.274 C 16.579 210.274 16.739 210.314 16.859 210.394 L 16.859 210.394 L 16.859 210.394 C 16.979 210.467 17.066 210.584 17.119 210.744 L 17.119 210.744 L 17.119 210.744 C 17.172 210.904 17.199 211.111 17.199 211.364 L 17.199 211.364 L 17.199 211.364 C 17.199 211.617 17.176 211.821 17.129 211.974 L 17.129 211.974 L 17.129 211.974 C 17.076 212.121 16.989 212.231 16.869 212.304 L 16.869 212.304 L 16.869 212.304 C 16.749 212.377 16.586 212.414 16.379 212.414 L 16.379 212.414 Z M 16.379 212.214 L 16.379 212.214 C 16.532 212.214 16.652 212.184 16.739 212.124 L 16.739 212.124 L 16.739 212.124 C 16.819 212.071 16.876 211.984 16.909 211.864 L 16.909 211.864 L 16.909 211.864 C 16.942 211.744 16.959 211.577 16.959 211.364 L 16.959 211.364 L 16.959 211.364 C 16.959 211.151 16.942 210.981 16.909 210.854 L 16.909 210.854 L 16.909 210.854 C 16.876 210.727 16.816 210.634 16.729 210.574 L 16.729 210.574 L 16.729 210.574 C 16.649 210.514 16.532 210.484 16.379 210.484 L 16.379 210.484 L 16.379 210.484 C 16.232 210.484 16.116 210.514 16.029 210.574 L 16.029 210.574 L 16.029 210.574 C 15.942 210.634 15.882 210.727 15.849 210.854 L 15.849 210.854 L 15.849 210.854 C 15.816 210.981 15.799 211.147 15.799 211.354 L 15.799 211.354 L 15.799 211.354 C 15.799 211.567 15.816 211.734 15.849 211.854 L 15.849 211.854 L 15.849 211.854 C 15.882 211.974 15.942 212.064 16.029 212.124 L 16.029 212.124 L 16.029 212.124 C 16.116 212.184 16.232 212.214 16.379 212.214 L 16.379 212.214 ZM 18.329 212.414 L 18.329 212.414 C 18.089 212.414 17.909 212.361 17.789 212.254 L 17.789 212.254 L 17.789 212.254 C 17.669 212.147 17.609 211.981 17.609 211.754 L 17.609 211.754 L 17.609 210.304 L 17.839 210.304 L 17.839 211.764 L 17.839 211.764 C 17.839 212.064 18.002 212.214 18.329 212.214 L 18.329 212.214 L 18.329 212.214 C 18.495 212.214 18.622 212.177 18.709 212.104 L 18.709 212.104 L 18.709 212.104 C 18.789 212.031 18.829 211.917 18.829 211.764 L 18.829 211.764 L 18.829 210.304 L 19.059 210.304 L 19.059 211.754 L 19.059 211.754 C 19.059 211.981 18.999 212.147 18.879 212.254 L 18.879 212.254 L 18.879 212.254 C 18.759 212.361 18.575 212.414 18.329 212.414 L 18.329 212.414 ZM 19.98 212.384 L 19.98 210.514 L 19.34 210.514 L 19.34 210.304 L 20.84 210.304 L 20.84 210.514 L 20.21 210.514 L 20.21 212.384 L 19.98 212.384 Z" transform="matrix(1, 0, 0, 1, 0, 0)" style="fill: rgb(51, 51, 51); white-space: pre;" id="path9"/>
      <path d="M 2.317 236.976 L 2.317 236.976 C 2.11 236.976 1.947 236.936 1.827 236.856 L 1.827 236.856 L 1.827 236.856 C 1.714 236.776 1.637 236.663 1.597 236.516 L 1.597 236.516 L 1.597 236.516 C 1.557 236.363 1.537 236.159 1.537 235.906 L 1.537 235.906 L 1.537 235.906 C 1.537 235.659 1.557 235.459 1.597 235.306 L 1.597 235.306 L 1.597 235.306 C 1.637 235.153 1.714 235.036 1.827 234.956 L 1.827 234.956 L 1.827 234.956 C 1.94 234.876 2.1 234.836 2.307 234.836 L 2.307 234.836 L 2.307 234.836 C 2.467 234.836 2.654 234.859 2.867 234.906 L 2.867 234.906 L 2.857 235.106 L 2.857 235.106 C 2.657 235.066 2.484 235.046 2.337 235.046 L 2.337 235.046 L 2.337 235.046 C 2.177 235.046 2.057 235.076 1.977 235.136 L 1.977 235.136 L 1.977 235.136 C 1.897 235.189 1.844 235.279 1.817 235.406 L 1.817 235.406 L 1.817 235.406 C 1.79 235.526 1.777 235.703 1.777 235.936 L 1.777 235.936 L 1.777 235.936 C 1.777 236.143 1.79 236.303 1.817 236.416 L 1.817 236.416 L 1.817 236.416 C 1.844 236.536 1.897 236.623 1.977 236.676 L 1.977 236.676 L 1.977 236.676 C 2.064 236.736 2.194 236.766 2.367 236.766 L 2.367 236.766 L 2.367 236.766 C 2.5 236.766 2.664 236.749 2.857 236.716 L 2.857 236.716 L 2.867 236.916 L 2.867 236.916 C 2.66 236.956 2.477 236.976 2.317 236.976 L 2.317 236.976 ZM 3.946 236.976 L 3.946 236.976 C 3.739 236.976 3.576 236.939 3.456 236.866 L 3.456 236.866 L 3.456 236.866 C 3.336 236.793 3.252 236.679 3.206 236.526 L 3.206 236.526 L 3.206 236.526 C 3.152 236.373 3.126 236.169 3.126 235.916 L 3.126 235.916 L 3.126 235.916 C 3.126 235.669 3.152 235.466 3.206 235.306 L 3.206 235.306 L 3.206 235.306 C 3.259 235.146 3.346 235.029 3.466 234.956 L 3.466 234.956 L 3.466 234.956 C 3.586 234.876 3.746 234.836 3.946 234.836 L 3.946 234.836 L 3.946 234.836 C 4.146 234.836 4.306 234.876 4.426 234.956 L 4.426 234.956 L 4.426 234.956 C 4.546 235.029 4.632 235.146 4.686 235.306 L 4.686 235.306 L 4.686 235.306 C 4.739 235.466 4.766 235.673 4.766 235.926 L 4.766 235.926 L 4.766 235.926 C 4.766 236.179 4.742 236.383 4.696 236.536 L 4.696 236.536 L 4.696 236.536 C 4.642 236.683 4.556 236.793 4.436 236.866 L 4.436 236.866 L 4.436 236.866 C 4.316 236.939 4.152 236.976 3.946 236.976 L 3.946 236.976 Z M 3.946 236.776 L 3.946 236.776 C 4.099 236.776 4.219 236.746 4.306 236.686 L 4.306 236.686 L 4.306 236.686 C 4.386 236.633 4.442 236.546 4.476 236.426 L 4.476 236.426 L 4.476 236.426 C 4.509 236.306 4.526 236.139 4.526 235.926 L 4.526 235.926 L 4.526 235.926 C 4.526 235.713 4.509 235.543 4.476 235.416 L 4.476 235.416 L 4.476 235.416 C 4.442 235.289 4.382 235.196 4.296 235.136 L 4.296 235.136 L 4.296 235.136 C 4.216 235.076 4.099 235.046 3.946 235.046 L 3.946 235.046 L 3.946 235.046 C 3.799 235.046 3.682 235.076 3.596 235.136 L 3.596 235.136 L 3.596 235.136 C 3.509 235.196 3.449 235.289 3.416 235.416 L 3.416 235.416 L 3.416 235.416 C 3.382 235.543 3.366 235.709 3.366 235.916 L 3.366 235.916 L 3.366 235.916 C 3.366 236.129 3.382 236.296 3.416 236.416 L 3.416 236.416 L 3.416 236.416 C 3.449 236.536 3.509 236.626 3.596 236.686 L 3.596 236.686 L 3.596 236.686 C 3.682 236.746 3.799 236.776 3.946 236.776 L 3.946 236.776 ZM 6.389 236.946 L 6.239 236.416 L 5.349 236.416 L 5.199 236.946 L 4.969 236.946 L 5.539 234.866 L 6.049 234.866 L 6.619 236.946 L 6.389 236.946 Z M 5.719 235.066 L 5.399 236.206 L 6.189 236.206 L 5.869 235.066 L 5.719 235.066 ZM 6.947 236.946 L 6.947 234.866 L 7.707 234.866 L 7.707 234.866 C 7.934 234.866 8.1 234.919 8.207 235.026 L 8.207 235.026 L 8.207 235.026 C 8.32 235.126 8.377 235.283 8.377 235.496 L 8.377 235.496 L 8.377 235.496 C 8.377 235.823 8.247 236.026 7.987 236.106 L 7.987 236.106 L 8.387 236.946 L 8.137 236.946 L 7.757 236.146 L 7.177 236.146 L 7.177 236.946 L 6.947 236.946 Z M 7.177 235.946 L 7.717 235.946 L 7.717 235.946 C 7.997 235.946 8.137 235.799 8.137 235.506 L 8.137 235.506 L 8.137 235.506 C 8.137 235.219 7.994 235.076 7.707 235.076 L 7.707 235.076 L 7.177 235.076 L 7.177 235.946 ZM 9.355 236.976 L 9.355 236.976 C 9.215 236.976 9.031 236.959 8.805 236.926 L 8.805 236.926 L 8.695 236.906 L 8.725 236.716 L 8.725 236.716 C 8.998 236.749 9.205 236.766 9.345 236.766 L 9.345 236.766 L 9.345 236.766 C 9.638 236.766 9.785 236.629 9.785 236.356 L 9.785 236.356 L 9.785 236.356 C 9.785 236.276 9.771 236.216 9.745 236.176 L 9.745 236.176 L 9.745 236.176 C 9.718 236.129 9.671 236.093 9.605 236.066 L 9.605 236.066 L 9.605 236.066 C 9.538 236.039 9.445 236.013 9.325 235.986 L 9.325 235.986 L 9.325 235.986 C 9.158 235.953 9.031 235.913 8.945 235.866 L 8.945 235.866 L 8.945 235.866 C 8.851 235.826 8.785 235.769 8.745 235.696 L 8.745 235.696 L 8.745 235.696 C 8.698 235.623 8.675 235.523 8.675 235.396 L 8.675 235.396 L 8.675 235.396 C 8.675 235.023 8.898 234.836 9.345 234.836 L 9.345 234.836 L 9.345 234.836 C 9.498 234.836 9.708 234.856 9.975 234.896 L 9.975 234.896 L 9.955 235.096 L 9.955 235.096 C 9.668 235.056 9.471 235.036 9.365 235.036 L 9.365 235.036 L 9.365 235.036 C 9.065 235.036 8.915 235.149 8.915 235.376 L 8.915 235.376 L 8.915 235.376 C 8.915 235.463 8.928 235.529 8.955 235.576 L 8.955 235.576 L 8.955 235.576 C 8.988 235.623 9.038 235.659 9.105 235.686 L 9.105 235.686 L 9.105 235.686 C 9.178 235.713 9.288 235.743 9.435 235.776 L 9.435 235.776 L 9.435 235.776 C 9.588 235.809 9.705 235.849 9.785 235.896 L 9.785 235.896 L 9.785 235.896 C 9.865 235.936 9.925 235.989 9.965 236.056 L 9.965 236.056 L 9.965 236.056 C 9.998 236.129 10.015 236.223 10.015 236.336 L 10.015 236.336 L 10.015 236.336 C 10.015 236.763 9.795 236.976 9.355 236.976 L 9.355 236.976 ZM 11.68 235.076 L 10.65 235.076 L 10.65 235.786 L 11.5 235.786 L 11.5 235.996 L 10.65 235.996 L 10.65 236.746 L 11.68 236.746 L 11.68 236.946 L 10.42 236.946 L 10.42 234.866 L 11.68 234.866 L 11.68 235.076 Z" transform="matrix(1, 0, 0, 1, 0, 0)" style="fill: rgb(51, 51, 51); white-space: pre;" id="path11"/>
      <path d="M 16.236 235.079 L 15.226 235.079 L 15.226 235.889 L 16.076 235.889 L 16.076 236.089 L 15.226 236.089 L 15.226 236.949 L 14.996 236.949 L 14.996 234.869 L 16.236 234.869 L 16.236 235.079 ZM 16.574 236.949 L 16.574 234.869 L 16.804 234.869 L 16.804 236.949 L 16.574 236.949 ZM 18.592 234.869 L 18.822 234.869 L 18.822 236.949 L 18.402 236.949 L 17.592 235.079 L 17.542 235.079 L 17.542 236.949 L 17.312 236.949 L 17.312 234.869 L 17.742 234.869 L 18.542 236.749 L 18.592 236.749 L 18.592 234.869 ZM 20.599 235.079 L 19.569 235.079 L 19.569 235.789 L 20.419 235.789 L 20.419 235.999 L 19.569 235.999 L 19.569 236.749 L 20.599 236.749 L 20.599 236.949 L 19.339 236.949 L 19.339 234.869 L 20.599 234.869 L 20.599 235.079 Z" transform="matrix(1, 0, 0, 1, 0, 0)" style="fill: rgb(51, 51, 51); white-space: pre;" id="path13"/>
    </g>
  </g>
  <line style="stroke: rgb(0, 0, 0);" x1="10.169291496276855" y1="22.065444946289062" x2="10.169291496276855" y2="22.065444946289062" id="line16">
    <title>test4</title>
  </line>
  <line style="stroke: rgb(0, 0, 0);" x1="4.413088798522949" y1="26.094785690307617" x2="4.413088798522949" y2="26.094785690307617" id="line18"/>
  <line style="stroke: rgb(0, 0, 0); vector-effect: non-scaling-stroke; stroke-width: 2;" x1="12.002" y1="12.664" x2="11.81" y2="33.962" id="line20"/>
  <g style="visibility: hidden;" id="widgets">
    <rect id="i" width="4" height="4" y="19.176" style="stroke-width: 0.264583; fill: rgb(0, 255, 0);" x="3.443"/>
    <rect id="sendin" width="4" height="4" y="27.476" style="stroke-width: 0.264583; fill: rgb(0, 255, 0);" x="3.521"/>
    <rect id="coarse" width="4" height="4" x="3.443" y="43.606" style="stroke-width: 0.264583; fill: rgb(255, 0, 0);"/>
    <rect id="fine" width="4" height="4" x="15.423" y="43.606" style="stroke-width: 0.264583; fill: rgb(255, 0, 0);"/>
    <rect id="sendout" width="4" height="4" x="15.58" y="27.476" style="stroke-width: 0.264583; fill: rgb(0, 0, 255);"/>
    <rect id="o" width="4" height="4" x="15.423" y="19.176" style="stroke-width: 0.264583; fill: rgb(0, 0, 255);"/>
  </g>
</svg>