<?xml version="1.0" encoding="UTF-8" standalone="no"?>
<svg
   xmlns:dc="http://purl.org/dc/elements/1.1/"
   xmlns:cc="http://creativecommons.org/ns#"
   xmlns:rdf="http://www.w3.org/1999/02/22-rdf-syntax-ns#"
   xmlns:svg="http://www.w3.org/2000/svg"
   xmlns="http://www.w3.org/2000/svg"
   xmlns:sodipodi="http://sodipodi.sourceforge.net/DTD/sodipodi-0.dtd"
   xmlns:inkscape="http://www.inkscape.org/namespaces/inkscape"
   width="90"
   height="380"
   viewBox="0 0 23.812501 100.54167"
   version="1.1"
   id="svg8"
   sodipodi:docname="DelayBase.svg"
   inkscape:version="0.92.2 5c3e80d, 2017-08-06">
  <metadata
     id="metadata30">
    <rdf:RDF>
      <cc:Work
         rdf:about="">
        <dc:format>image/svg+xml</dc:format>
        <dc:type
           rdf:resource="http://purl.org/dc/dcmitype/StillImage" />
      </cc:Work>
    </rdf:RDF>
  </metadata>
  <defs
     id="defs28" />
  <sodipodi:namedview
     pagecolor="#ffffff"
     bordercolor="#666666"
     borderopacity="1"
     objecttolerance="10"
     gridtolerance="10"
     guidetolerance="10"
     inkscape:pageopacity="0"
     inkscape:pageshadow="2"
     inkscape:window-width="1280"
     inkscape:window-height="733"
     id="namedview26"
     showgrid="false"
     inkscape:zoom="4.9684212"
     inkscape:cx="37.715816"
     inkscape:cy="305.75669"
     inkscape:window-x="0"
     inkscape:window-y="0"
     inkscape:window-maximized="0"
     inkscape:current-layer="layer2" />
  <g
     id="ok"
     transform="translate(-0.10314268,-196.50022)">
    <g
       id="layer1">
      <title
         id="title2">layer3</title>
      <path
         style="opacity:1;vector-effect:none;fill:#f0f0f0;fill-opacity:1;fill-rule:evenodd;stroke:none;stroke-width:0.48607069;stroke-linecap:butt;stroke-linejoin:round;stroke-miterlimit:4;stroke-dasharray:none;stroke-dashoffset:0;stroke-opacity:1;paint-order:normal"
         d="M 0,196.45831 H 23.8125 V 296.99999 H 0 Z"
         id="rect817"
         inkscape:connector-curvature="0" />
      <path
         d="m 1.051,204.901 v -3.46 h 1.27 v 0 c 0.373,0 0.65,0.09 0.83,0.27 v 0 0 c 0.18,0.18 0.27,0.46 0.27,0.84 v 0 0 c 0,0.787 -0.367,1.18 -1.1,1.18 v 0 h -0.88 v 1.17 z m 0.39,-1.51 h 0.88 v 0 c 0.473,0 0.71,-0.28 0.71,-0.84 v 0 0 c 0,-0.267 -0.057,-0.463 -0.17,-0.59 v 0 0 c -0.113,-0.12 -0.293,-0.18 -0.54,-0.18 v 0 h -0.88 z m 3.295,1.56 v 0 c -0.213,0 -0.377,-0.04 -0.49,-0.12 v 0 0 c -0.113,-0.073 -0.193,-0.2 -0.24,-0.38 v 0 0 c -0.047,-0.173 -0.07,-0.423 -0.07,-0.75 v 0 -1.3 h 0.37 v 1.3 0 c 0,0.247 0.013,0.433 0.04,0.56 v 0 0 c 0.027,0.127 0.077,0.22 0.15,0.28 v 0 0 c 0.067,0.047 0.173,0.07 0.32,0.07 v 0 0 c 0.227,0 0.46,-0.06 0.7,-0.18 v 0 -2.03 h 0.37 v 2.5 h -0.37 v -0.18 0 c -0.133,0.08 -0.26,0.14 -0.38,0.18 v 0 0 c -0.12,0.033 -0.253,0.05 -0.4,0.05 z m 1.875,-0.05 v -2.5 h 0.37 v 0.34 0 c 0.287,-0.2 0.593,-0.333 0.92,-0.4 v 0 0.38 0 c -0.133,0.027 -0.277,0.07 -0.43,0.13 v 0 0 c -0.153,0.053 -0.273,0.103 -0.36,0.15 v 0 l -0.13,0.07 v 1.83 z m 2.61,0.05 v 0 c -0.38,0 -0.647,-0.1 -0.8,-0.3 v 0 0 c -0.16,-0.2 -0.24,-0.513 -0.24,-0.94 v 0 0 c 0,-0.46 0.087,-0.8 0.26,-1.02 v 0 0 c 0.167,-0.227 0.43,-0.34 0.79,-0.34 v 0 0 c 0.333,0 0.583,0.097 0.75,0.29 v 0 0 c 0.167,0.187 0.25,0.48 0.25,0.88 v 0 l -0.02,0.29 h -1.65 v 0 c 0,0.2 0.023,0.36 0.07,0.48 v 0 0 c 0.047,0.12 0.123,0.203 0.23,0.25 v 0 0 c 0.107,0.053 0.257,0.08 0.45,0.08 v 0 0 c 0.1,0 0.213,-0.003 0.34,-0.01 v 0 0 c 0.127,0 0.24,-0.007 0.34,-0.02 v 0 l 0.15,-0.02 v 0.3 0 c -0.367,0.053 -0.673,0.08 -0.92,0.08 z m -0.66,-1.45 h 1.3 v 0 c 0,-0.3 -0.05,-0.513 -0.15,-0.64 v 0 0 c -0.093,-0.127 -0.253,-0.19 -0.48,-0.19 v 0 0 c -0.227,0 -0.393,0.067 -0.5,0.2 v 0 0 c -0.113,0.133 -0.17,0.343 -0.17,0.63 z m 4.135,1.45 v 0 c -0.32,0 -0.547,-0.103 -0.68,-0.31 v 0 0 c -0.14,-0.207 -0.21,-0.523 -0.21,-0.95 v 0 0 c 0,-0.473 0.083,-0.813 0.25,-1.02 v 0 0 c 0.16,-0.213 0.43,-0.32 0.81,-0.32 v 0 0 c 0.193,0 0.393,0.023 0.6,0.07 v 0 -1.11 h 0.37 v 3.59 h -0.37 v -0.17 0 c -0.253,0.147 -0.51,0.22 -0.77,0.22 z m 0.07,-0.34 v 0 c 0.093,0 0.197,-0.013 0.31,-0.04 v 0 0 c 0.113,-0.027 0.21,-0.057 0.29,-0.09 v 0 l 0.1,-0.05 v -1.7 0 c -0.22,-0.04 -0.41,-0.06 -0.57,-0.06 v 0 0 c -0.26,0 -0.443,0.077 -0.55,0.23 v 0 0 c -0.1,0.153 -0.15,0.407 -0.15,0.76 v 0 0 c 0,0.327 0.04,0.567 0.12,0.72 v 0 0 c 0.087,0.153 0.237,0.23 0.45,0.23 z m 2.695,0.34 v 0 c -0.38,0 -0.647,-0.1 -0.8,-0.3 v 0 0 c -0.16,-0.2 -0.24,-0.513 -0.24,-0.94 v 0 0 c 0,-0.46 0.087,-0.8 0.26,-1.02 v 0 0 c 0.167,-0.227 0.43,-0.34 0.79,-0.34 v 0 0 c 0.333,0 0.583,0.097 0.75,0.29 v 0 0 c 0.167,0.187 0.25,0.48 0.25,0.88 v 0 l -0.02,0.29 h -1.65 v 0 c 0,0.2 0.023,0.36 0.07,0.48 v 0 0 c 0.047,0.12 0.123,0.203 0.23,0.25 v 0 0 c 0.107,0.053 0.257,0.08 0.45,0.08 v 0 0 c 0.1,0 0.213,-0.003 0.34,-0.01 v 0 0 c 0.127,0 0.24,-0.007 0.34,-0.02 v 0 l 0.15,-0.02 v 0.3 0 c -0.367,0.053 -0.673,0.08 -0.92,0.08 z m -0.66,-1.45 h 1.3 v 0 c 0,-0.3 -0.05,-0.513 -0.15,-0.64 v 0 0 c -0.093,-0.127 -0.253,-0.19 -0.48,-0.19 v 0 0 c -0.227,0 -0.393,0.067 -0.5,0.2 v 0 0 c -0.113,0.133 -0.17,0.343 -0.17,0.63 z m 2.285,1.4 v -3.59 h 0.38 v 3.59 z m 1.675,0.05 v 0 c -0.233,0 -0.41,-0.063 -0.53,-0.19 v 0 0 c -0.12,-0.133 -0.18,-0.32 -0.18,-0.56 v 0 0 c 0,-0.24 0.06,-0.42 0.18,-0.54 v 0 0 c 0.127,-0.12 0.32,-0.193 0.58,-0.22 v 0 l 0.79,-0.07 v -0.22 0 c 0,-0.313 -0.137,-0.47 -0.41,-0.47 v 0 0 c -0.267,0 -0.597,0.02 -0.99,0.06 v 0 l -0.01,-0.28 v 0 c 0.36,-0.073 0.683,-0.11 0.97,-0.11 v 0 0 c 0.287,0 0.493,0.063 0.62,0.19 v 0 0 c 0.133,0.127 0.2,0.33 0.2,0.61 v 0 1.28 0 c 0.007,0.127 0.103,0.203 0.29,0.23 v 0 l -0.02,0.29 v 0 c -0.267,0 -0.467,-0.067 -0.6,-0.2 v 0 0 c -0.293,0.133 -0.59,0.2 -0.89,0.2 z m 0.05,-0.32 v 0 c 0.227,0 0.453,-0.037 0.68,-0.11 v 0 l 0.11,-0.04 v -0.83 l -0.74,0.07 v 0 c -0.147,0.013 -0.253,0.06 -0.32,0.14 v 0 0 c -0.073,0.067 -0.11,0.173 -0.11,0.32 v 0 0 c 0,0.3 0.127,0.45 0.38,0.45 z m 2.4,1.38 0.33,-1.11 h -0.38 l -0.7,-2.5 h 0.37 l 0.63,2.17 h 0.16 l 0.63,-2.17 h 0.37 l -1.03,3.61 z"
         style="white-space:pre;fill:#333333"
         id="path3"
         inkscape:connector-curvature="0" />
      <line
         style="stroke:#000000"
         x1="11.99279"
         y1="212.3838"
         x2="11.99279"
         y2="212.3838"
         id="line5" />
      <path
         d="m 4.304,212.384 v -2.08 h 0.23 v 2.08 z m 2.018,-2.08 h 0.23 v 2.08 h -0.42 l -0.81,-1.87 h -0.05 v 1.87 h -0.23 v -2.08 h 0.43 l 0.8,1.88 h 0.05 z"
         style="white-space:pre;fill:#333333"
         id="path7"
         inkscape:connector-curvature="0" />
      <path
         d="m 16.379,212.414 v 0 c -0.207,0 -0.37,-0.037 -0.49,-0.11 v 0 0 c -0.12,-0.073 -0.203,-0.187 -0.25,-0.34 v 0 0 c -0.053,-0.153 -0.08,-0.357 -0.08,-0.61 v 0 0 c 0,-0.247 0.027,-0.45 0.08,-0.61 v 0 0 c 0.053,-0.16 0.14,-0.277 0.26,-0.35 v 0 0 c 0.12,-0.08 0.28,-0.12 0.48,-0.12 v 0 0 c 0.2,0 0.36,0.04 0.48,0.12 v 0 0 c 0.12,0.073 0.207,0.19 0.26,0.35 v 0 0 c 0.053,0.16 0.08,0.367 0.08,0.62 v 0 0 c 0,0.253 -0.023,0.457 -0.07,0.61 v 0 0 c -0.053,0.147 -0.14,0.257 -0.26,0.33 v 0 0 c -0.12,0.073 -0.283,0.11 -0.49,0.11 z m 0,-0.2 v 0 c 0.153,0 0.273,-0.03 0.36,-0.09 v 0 0 c 0.08,-0.053 0.137,-0.14 0.17,-0.26 v 0 0 c 0.033,-0.12 0.05,-0.287 0.05,-0.5 v 0 0 c 0,-0.213 -0.017,-0.383 -0.05,-0.51 v 0 0 c -0.033,-0.127 -0.093,-0.22 -0.18,-0.28 v 0 0 c -0.08,-0.06 -0.197,-0.09 -0.35,-0.09 v 0 0 c -0.147,0 -0.263,0.03 -0.35,0.09 v 0 0 c -0.087,0.06 -0.147,0.153 -0.18,0.28 v 0 0 c -0.033,0.127 -0.05,0.293 -0.05,0.5 v 0 0 c 0,0.213 0.017,0.38 0.05,0.5 v 0 0 c 0.033,0.12 0.093,0.21 0.18,0.27 v 0 0 c 0.087,0.06 0.203,0.09 0.35,0.09 z m 1.95,0.2 v 0 c -0.24,0 -0.42,-0.053 -0.54,-0.16 v 0 0 c -0.12,-0.107 -0.18,-0.273 -0.18,-0.5 v 0 -1.45 h 0.23 v 1.46 0 c 0,0.3 0.163,0.45 0.49,0.45 v 0 0 c 0.166,0 0.293,-0.037 0.38,-0.11 v 0 0 c 0.08,-0.073 0.12,-0.187 0.12,-0.34 v 0 -1.46 h 0.23 v 1.45 0 c 0,0.227 -0.06,0.393 -0.18,0.5 v 0 0 c -0.12,0.107 -0.304,0.16 -0.55,0.16 z m 1.651,-0.03 v -1.87 h -0.64 v -0.21 h 1.5 v 0.21 h -0.63 v 1.87 z"
         style="white-space:pre;fill:#333333"
         id="path9"
         inkscape:connector-curvature="0" />
      <path
         d="m 2.317,236.976 v 0 c -0.207,0 -0.37,-0.04 -0.49,-0.12 v 0 0 c -0.113,-0.08 -0.19,-0.193 -0.23,-0.34 v 0 0 c -0.04,-0.153 -0.06,-0.357 -0.06,-0.61 v 0 0 c 0,-0.247 0.02,-0.447 0.06,-0.6 v 0 0 c 0.04,-0.153 0.117,-0.27 0.23,-0.35 v 0 0 c 0.113,-0.08 0.273,-0.12 0.48,-0.12 v 0 0 c 0.16,0 0.347,0.023 0.56,0.07 v 0 l -0.01,0.2 v 0 c -0.2,-0.04 -0.373,-0.06 -0.52,-0.06 v 0 0 c -0.16,0 -0.28,0.03 -0.36,0.09 v 0 0 c -0.08,0.053 -0.133,0.143 -0.16,0.27 v 0 0 c -0.027,0.12 -0.04,0.297 -0.04,0.53 v 0 0 c 0,0.207 0.013,0.367 0.04,0.48 v 0 0 c 0.027,0.12 0.08,0.207 0.16,0.26 v 0 0 c 0.087,0.06 0.217,0.09 0.39,0.09 v 0 0 c 0.133,0 0.297,-0.017 0.49,-0.05 v 0 l 0.01,0.2 v 0 c -0.207,0.04 -0.39,0.06 -0.55,0.06 z m 1.629,0 v 0 c -0.207,0 -0.37,-0.037 -0.49,-0.11 v 0 0 c -0.12,-0.073 -0.204,-0.187 -0.25,-0.34 v 0 0 c -0.054,-0.153 -0.08,-0.357 -0.08,-0.61 v 0 0 c 0,-0.247 0.026,-0.45 0.08,-0.61 v 0 0 c 0.053,-0.16 0.14,-0.277 0.26,-0.35 v 0 0 c 0.12,-0.08 0.28,-0.12 0.48,-0.12 v 0 0 c 0.2,0 0.36,0.04 0.48,0.12 v 0 0 c 0.12,0.073 0.206,0.19 0.26,0.35 v 0 0 c 0.053,0.16 0.08,0.367 0.08,0.62 v 0 0 c 0,0.253 -0.024,0.457 -0.07,0.61 v 0 0 c -0.054,0.147 -0.14,0.257 -0.26,0.33 v 0 0 c -0.12,0.073 -0.284,0.11 -0.49,0.11 z m 0,-0.2 v 0 c 0.153,0 0.273,-0.03 0.36,-0.09 v 0 0 c 0.08,-0.053 0.136,-0.14 0.17,-0.26 v 0 0 c 0.033,-0.12 0.05,-0.287 0.05,-0.5 v 0 0 c 0,-0.213 -0.017,-0.383 -0.05,-0.51 v 0 0 c -0.034,-0.127 -0.094,-0.22 -0.18,-0.28 v 0 0 c -0.08,-0.06 -0.197,-0.09 -0.35,-0.09 v 0 0 c -0.147,0 -0.264,0.03 -0.35,0.09 v 0 0 c -0.087,0.06 -0.147,0.153 -0.18,0.28 v 0 0 c -0.034,0.127 -0.05,0.293 -0.05,0.5 v 0 0 c 0,0.213 0.016,0.38 0.05,0.5 v 0 0 c 0.033,0.12 0.093,0.21 0.18,0.27 v 0 0 c 0.086,0.06 0.203,0.09 0.35,0.09 z m 2.443,0.17 -0.15,-0.53 h -0.89 l -0.15,0.53 h -0.23 l 0.57,-2.08 h 0.51 l 0.57,2.08 z m -0.67,-1.88 -0.32,1.14 h 0.79 l -0.32,-1.14 z m 1.228,1.88 v -2.08 h 0.76 v 0 c 0.227,0 0.393,0.053 0.5,0.16 v 0 0 c 0.113,0.1 0.17,0.257 0.17,0.47 v 0 0 c 0,0.327 -0.13,0.53 -0.39,0.61 v 0 l 0.4,0.84 h -0.25 l -0.38,-0.8 h -0.58 v 0.8 z m 0.23,-1 h 0.54 v 0 c 0.28,0 0.42,-0.147 0.42,-0.44 v 0 0 c 0,-0.287 -0.143,-0.43 -0.43,-0.43 v 0 h -0.53 z m 2.178,1.03 v 0 c -0.14,0 -0.324,-0.017 -0.55,-0.05 v 0 l -0.11,-0.02 0.03,-0.19 v 0 c 0.273,0.033 0.48,0.05 0.62,0.05 v 0 0 c 0.293,0 0.44,-0.137 0.44,-0.41 v 0 0 c 0,-0.08 -0.014,-0.14 -0.04,-0.18 v 0 0 c -0.027,-0.047 -0.074,-0.083 -0.14,-0.11 v 0 0 c -0.067,-0.027 -0.16,-0.053 -0.28,-0.08 v 0 0 c -0.167,-0.033 -0.294,-0.073 -0.38,-0.12 v 0 0 c -0.094,-0.04 -0.16,-0.097 -0.2,-0.17 v 0 0 c -0.047,-0.073 -0.07,-0.173 -0.07,-0.3 v 0 0 c 0,-0.373 0.223,-0.56 0.67,-0.56 v 0 0 c 0.153,0 0.363,0.02 0.63,0.06 v 0 l -0.02,0.2 v 0 c -0.287,-0.04 -0.484,-0.06 -0.59,-0.06 v 0 0 c -0.3,0 -0.45,0.113 -0.45,0.34 v 0 0 c 0,0.087 0.013,0.153 0.04,0.2 v 0 0 c 0.033,0.047 0.083,0.083 0.15,0.11 v 0 0 c 0.073,0.027 0.183,0.057 0.33,0.09 v 0 0 c 0.153,0.033 0.27,0.073 0.35,0.12 v 0 0 c 0.08,0.04 0.14,0.093 0.18,0.16 v 0 0 c 0.033,0.073 0.05,0.167 0.05,0.28 v 0 0 c 0,0.427 -0.22,0.64 -0.66,0.64 z m 2.325,-1.9 h -1.03 v 0.71 h 0.85 v 0.21 h -0.85 v 0.75 h 1.03 v 0.2 h -1.26 v -2.08 h 1.26 z"
         style="white-space:pre;fill:#333333"
         id="path11"
         inkscape:connector-curvature="0" />
      <path
         d="m 16.236,235.079 h -1.01 v 0.81 h 0.85 v 0.2 h -0.85 v 0.86 h -0.23 v -2.08 h 1.24 z m 0.338,1.87 v -2.08 h 0.23 v 2.08 z m 2.018,-2.08 h 0.23 v 2.08 h -0.42 l -0.81,-1.87 h -0.05 v 1.87 h -0.23 v -2.08 h 0.43 l 0.8,1.88 h 0.05 z m 2.007,0.21 h -1.03 v 0.71 h 0.85 v 0.21 h -0.85 v 0.75 h 1.03 v 0.2 h -1.26 v -2.08 h 1.26 z"
         style="white-space:pre;fill:#333333"
         id="path13"
         inkscape:connector-curvature="0" />
    </g>
  </g>
  <line
     style="stroke: rgb(0, 0, 0);"
     x1="10.169291496276855"
     y1="22.065444946289062"
     x2="10.169291496276855"
     y2="22.065444946289062"
     id="line16">
    <title
       id="title13">test4</title>
  </line>
  <line
     style="stroke: rgb(0, 0, 0);"
     x1="4.413088798522949"
     y1="26.094785690307617"
     x2="4.413088798522949"
     y2="26.094785690307617"
     id="line18" />
  <line
     style="stroke: rgb(0, 0, 0); vector-effect: non-scaling-stroke; stroke-width: 2;"
     x1="12.002"
     y1="12.664"
     x2="11.81"
     y2="33.962"
     id="line20" />
  <g
     id="widgets" />
  <g
     inkscape:groupmode="layer"
     id="layer2"
     inkscape:label="widgets"
     style="display:inline">
    <rect
       id="sendout"
       width="4"
       height="4"
       x="15.58"
       y="27.476"
       style="fill:#0000ff;stroke-width:0.26458299" />
    <rect
       id="o"
       width="4"
       height="4"
       x="15.423"
       y="19.176001"
       style="fill:#0000ff;stroke-width:0.26458299" />
    <rect
       id="coarse"
       width="4"
       height="4"
       x="3.4430001"
       y="43.605999"
       style="fill:#ff0000;stroke-width:0.26458299" />
    <rect
       id="fine"
       width="4"
       height="4"
       x="15.423"
       y="43.605999"
       style="fill:#ff0000;stroke-width:0.26458299" />
    <rect
       id="sendin"
       width="4"
       height="4"
       y="27.476"
       style="fill:#00ff00;stroke-width:0.26458299"
       x="3.5209999" />
    <rect
       id="i"
       width="4"
       height="4"
       y="19.176001"
       style="fill:#00ff00;stroke-width:0.26458299"
       x="3.4430001" />
  </g>
</svg>
