<?xml version="1.0" encoding="UTF-8" standalone="no"?>
<svg
   xmlns:dc="http://purl.org/dc/elements/1.1/"
   xmlns:cc="http://creativecommons.org/ns#"
   xmlns:rdf="http://www.w3.org/1999/02/22-rdf-syntax-ns#"
   xmlns:svg="http://www.w3.org/2000/svg"
   xmlns="http://www.w3.org/2000/svg"
   xmlns:sodipodi="http://sodipodi.sourceforge.net/DTD/sodipodi-0.dtd"
   xmlns:inkscape="http://www.inkscape.org/namespaces/inkscape"
   width="90"
   height="380"
   viewBox="0 0 23.812501 100.54167"
   version="1.1"
   id="svg8"
   sodipodi:docname="HoldBase.svg"
   inkscape:version="0.92.2 5c3e80d, 2017-08-06">
  <metadata
     id="metadata30">
    <rdf:RDF>
      <cc:Work
         rdf:about="">
        <dc:format>image/svg+xml</dc:format>
        <dc:type
           rdf:resource="http://purl.org/dc/dcmitype/StillImage" />
      </cc:Work>
    </rdf:RDF>
  </metadata>
  <defs
     id="defs28" />
  <sodipodi:namedview
     pagecolor="#ffffff"
     bordercolor="#666666"
     borderopacity="1"
     objecttolerance="10"
     gridtolerance="10"
     guidetolerance="10"
     inkscape:pageopacity="0"
     inkscape:pageshadow="2"
     inkscape:window-width="1280"
     inkscape:window-height="733"
     id="namedview26"
     showgrid="false"
     inkscape:zoom="3.5132043"
     inkscape:cx="-27.369569"
     inkscape:cy="284.83558"
     inkscape:window-x="0"
     inkscape:window-y="0"
     inkscape:window-maximized="0"
     inkscape:current-layer="layer2"
     inkscape:snap-text-baseline="false" />
  <g
     id="ok"
     transform="translate(-0.10314268,-196.50022)">
    <g
       id="layer1">
      <title
         id="title2">layer3</title>
      <path
         style="opacity:1;vector-effect:none;fill:#f0f0f0;fill-opacity:1;fill-rule:evenodd;stroke:none;stroke-width:0.48607069;stroke-linecap:butt;stroke-linejoin:round;stroke-miterlimit:4;stroke-dasharray:none;stroke-dashoffset:0;stroke-opacity:1;paint-order:normal"
         d="M 0,196.45831 H 23.8125 V 296.99999 H 0 Z"
         id="rect817"
         inkscape:connector-curvature="0" />
      <line
         style="stroke:#000000"
         x1="11.99279"
         y1="212.3838"
         x2="11.99279"
         y2="212.3838"
         id="line5" />
      <path
         d="m 4.304,212.384 v -2.08 h 0.23 v 2.08 z m 2.018,-2.08 h 0.23 v 2.08 h -0.42 l -0.81,-1.87 h -0.05 v 1.87 h -0.23 v -2.08 h 0.43 l 0.8,1.88 h 0.05 z"
         style="white-space:pre;fill:#333333"
         id="path7"
         inkscape:connector-curvature="0" />
      <path
         d="m 16.379,212.414 v 0 c -0.207,0 -0.37,-0.037 -0.49,-0.11 v 0 0 c -0.12,-0.073 -0.203,-0.187 -0.25,-0.34 v 0 0 c -0.053,-0.153 -0.08,-0.357 -0.08,-0.61 v 0 0 c 0,-0.247 0.027,-0.45 0.08,-0.61 v 0 0 c 0.053,-0.16 0.14,-0.277 0.26,-0.35 v 0 0 c 0.12,-0.08 0.28,-0.12 0.48,-0.12 v 0 0 c 0.2,0 0.36,0.04 0.48,0.12 v 0 0 c 0.12,0.073 0.207,0.19 0.26,0.35 v 0 0 c 0.053,0.16 0.08,0.367 0.08,0.62 v 0 0 c 0,0.253 -0.023,0.457 -0.07,0.61 v 0 0 c -0.053,0.147 -0.14,0.257 -0.26,0.33 v 0 0 c -0.12,0.073 -0.283,0.11 -0.49,0.11 z m 0,-0.2 v 0 c 0.153,0 0.273,-0.03 0.36,-0.09 v 0 0 c 0.08,-0.053 0.137,-0.14 0.17,-0.26 v 0 0 c 0.033,-0.12 0.05,-0.287 0.05,-0.5 v 0 0 c 0,-0.213 -0.017,-0.383 -0.05,-0.51 v 0 0 c -0.033,-0.127 -0.093,-0.22 -0.18,-0.28 v 0 0 c -0.08,-0.06 -0.197,-0.09 -0.35,-0.09 v 0 0 c -0.147,0 -0.263,0.03 -0.35,0.09 v 0 0 c -0.087,0.06 -0.147,0.153 -0.18,0.28 v 0 0 c -0.033,0.127 -0.05,0.293 -0.05,0.5 v 0 0 c 0,0.213 0.017,0.38 0.05,0.5 v 0 0 c 0.033,0.12 0.093,0.21 0.18,0.27 v 0 0 c 0.087,0.06 0.203,0.09 0.35,0.09 z m 1.95,0.2 v 0 c -0.24,0 -0.42,-0.053 -0.54,-0.16 v 0 0 c -0.12,-0.107 -0.18,-0.273 -0.18,-0.5 v 0 -1.45 h 0.23 v 1.46 0 c 0,0.3 0.163,0.45 0.49,0.45 v 0 0 c 0.166,0 0.293,-0.037 0.38,-0.11 v 0 0 c 0.08,-0.073 0.12,-0.187 0.12,-0.34 v 0 -1.46 h 0.23 v 1.45 0 c 0,0.227 -0.06,0.393 -0.18,0.5 v 0 0 c -0.12,0.107 -0.304,0.16 -0.55,0.16 z m 1.651,-0.03 v -1.87 h -0.64 v -0.21 h 1.5 v 0.21 h -0.63 v 1.87 z"
         style="white-space:pre;fill:#333333"
         id="path9"
         inkscape:connector-curvature="0" />
    </g>
  </g>
  <line
     style="stroke: rgb(0, 0, 0);"
     x1="10.169291496276855"
     y1="22.065444946289062"
     x2="10.169291496276855"
     y2="22.065444946289062"
     id="line16">
    <title
       id="title13">test4</title>
  </line>
  <line
     style="stroke: rgb(0, 0, 0);"
     x1="4.413088798522949"
     y1="26.094785690307617"
     x2="4.413088798522949"
     y2="26.094785690307617"
     id="line18" />
  <line
     style="vector-effect:non-scaling-stroke;stroke:#000000;stroke-width:2.70106387"
     x1="11.998808"
     y1="12.621091"
     x2="11.813192"
     y2="52.803219"
     id="line20" />
  <g
     id="widgets" />
  <text
     xml:space="preserve"
     style="font-style:normal;font-weight:normal;font-size:10.58333397px;line-height:1.25;font-family:sans-serif;letter-spacing:0px;word-spacing:0px;fill:#000000;fill-opacity:1;stroke:none;stroke-width:0.26458335"
     x="6.4436135"
     y="8.6269894"
     id="text835"><tspan
       sodipodi:role="line"
       id="tspan833"
       x="6.4436135"
       y="8.6269894"
       style="font-size:4.58611107px;stroke-width:0.26458335">Hold</tspan></text>
  <g
     inkscape:groupmode="layer"
     id="layer2"
     inkscape:label="widgets"
     style="display:inline">
    <rect
       id="out2"
       width="4"
       height="4"
       x="15.58"
       y="27.476"
       style="fill:#0000ff;stroke-width:0.26458299" />
    <rect
       id="out1"
       width="4"
       height="4"
       x="15.423"
       y="19.176001"
       style="fill:#0000ff;stroke-width:0.26458299" />
    <rect
       id="in2"
       width="4"
       height="4"
       y="27.476"
       style="fill:#00ff00;stroke-width:0.26458299"
       x="3.5209999" />
    <rect
       id="in1"
       width="4"
       height="4"
       y="19.176001"
       style="fill:#00ff00;stroke-width:0.26458299"
       x="3.4430001" />
    <rect
       x="9.8444452"
       style="fill:#00ff00;stroke-width:0.26458299"
       y="10.3646"
       height="4"
       width="4"
       id="control" />
    <rect
       x="3.5209999"
       style="fill:#00ff00;stroke-width:0.26458299"
       y="35.6096"
       height="4"
       width="4"
       id="in3" />
    <rect
       id="in4"
       width="4"
       height="4"
       y="43.969135"
       style="fill:#00ff00;stroke-width:0.26458299"
       x="3.5963111" />
    <rect
       style="fill:#0000ff;stroke-width:0.26458299"
       y="35.835533"
       x="15.278755"
       height="4"
       width="4"
       id="out3" />
    <rect
       id="out4"
       width="4"
       height="4"
       x="15.278755"
       y="43.743202"
       style="fill:#0000ff;stroke-width:0.26458299" />
  </g>
</svg>
